<?xml version="1.0" encoding="UTF-8"?>
<svg width="501px" height="622px" viewBox="0 0 501 622" version="1.1" xmlns="http://www.w3.org/2000/svg" xmlns:xlink="http://www.w3.org/1999/xlink" xmlns:sketch="http://www.bohemiancoding.com/sketch/ns">
    <!-- Generator: Sketch 3.0 (7574) - http://www.bohemiancoding.com/sketch -->
    <title>outlet-activated</title>
    <defs></defs>
    <g id="Page-1" stroke="none" stroke-width="1" fill="none" fill-rule="evenodd" sketch:type="MSPage">
        <g id="Portrait" sketch:type="MSArtboardGroup" transform="translate(-111.000000, -267.000000)">
            <g id="outlet-activated" sketch:type="MSLayerGroup" transform="translate(112.000000, 267.000000)">
                <g id="Group" sketch:type="MSShapeGroup">
                    <g id="Shape">
                        <path d="M364.173077,558.4425 L134.653846,558.4425 C60.1730769,558.4425 -0.423076923,497.805 -0.423076923,423.24975 L-0.423076923,259.1435 C-0.423076923,236.775 17.75,218.58375 40.0961538,218.58375 L458.730769,218.58375 C481.057692,218.58375 499.230769,236.775 499.230769,259.1435 L499.230769,423.24975 C499.230769,497.78575 438.653846,558.4425 364.173077,558.4425 Z" fill="#333333"></path>
                        <path d="M138.192308,225.031971 C132.884615,225.031971 128.576923,220.951741 128.576923,215.924314 L128.576923,45.5382812 C128.576923,30.4742178 115.634615,18.2153125 99.7307692,18.2153125 L96.5576923,18.2153125 C80.6538462,18.2153125 67.7115385,30.4742178 67.7115385,45.5382812 L67.7115385,215.924314 C67.7115385,220.951741 63.4038462,225.031971 58.0961538,225.031971 C52.7884615,225.031971 48.4807692,220.951741 48.4807692,215.924314 L48.4807692,45.5382812 C48.4807692,20.4193653 70.0384615,0 96.5576923,0 L99.7115385,0 C126.230769,0 147.788462,20.4193653 147.788462,45.5382812 L147.788462,215.924314 C147.807692,220.951741 143.5,225.031971 138.192308,225.031971 L138.192308,225.031971 Z" fill="#FFFFFF"></path>
                        <path d="M440.692308,225.031971 C435.384615,225.031971 431.076923,220.951741 431.076923,215.924314 L431.076923,45.5382812 C431.076923,30.4742178 418.134615,18.2153125 402.230769,18.2153125 L399.076923,18.2153125 C383.173077,18.2153125 370.230769,30.4742178 370.230769,45.5382812 L370.230769,215.924314 C370.230769,220.951741 365.923077,225.031971 360.615385,225.031971 C355.307692,225.031971 351,220.951741 351,215.924314 L351,45.5382812 C351,20.4193653 372.557692,0 399.076923,0 L402.230769,0 C428.75,0 450.307692,20.4193653 450.307692,45.5382812 L450.307692,215.924314 C450.307692,220.951741 446,225.031971 440.692308,225.031971 L440.692308,225.031971 Z" fill="#FFFFFF"></path>
                        <path d="M321.557692,621.146853 L177.25,621.146853 C171.942308,621.146853 167.634615,617.920763 167.634615,613.945759 L167.634615,565.784844 C167.634615,561.80984 171.942308,558.58375 177.25,558.58375 L321.557692,558.58375 C326.865385,558.58375 331.173077,561.80984 331.173077,565.784844 L331.173077,613.945759 C331.173077,617.920763 326.865385,621.146853 321.557692,621.146853 L321.557692,621.146853 Z M186.865385,606.744665 L311.942308,606.744665 L311.942308,572.985938 L186.865385,572.985938 L186.865385,606.744665 L186.865385,606.744665 Z" fill="#FFFFFF"></path>
                    </g>
                    <g transform="translate(203.538462, 303.000000)" id="Shape" fill="#FFFFFF">
                        <path d="M15.8653846,147.7965 L39.2307692,83.52075 L9.73076923,75.08925 L65.0384615,9.29275 L48.5,66.77325 L78,75.20475 L15.8653846,147.7965 Z"></path>
                        <path d="M15.8653846,157.4215 C14.1923077,157.4215 12.5192308,156.998 11.0192308,156.1125 C7,153.764 5.23076923,148.89375 6.82692308,144.50475 L26.6538462,89.931 L7.07692308,84.32925 C3.94230769,83.44375 1.46153846,81.01825 0.5,77.89975 C-0.442307692,74.78125 0.230769231,71.374 2.34615385,68.8715 L57.6730769,3.075 C60.5961538,-0.40925 65.5769231,-1.314 69.5576923,0.78425 C73.5576923,2.921 75.5384615,7.5795 74.2692308,11.94925 L60.3846154,60.15125 L80.6153846,65.9455 C83.7692308,66.831 86.25,69.27575 87.1923077,72.4135 C88.1538462,75.5705 87.4230769,78.97775 85.2884615,81.461 L23.1538462,154.05275 C21.2884615,156.24725 18.5769231,157.4215 15.8653846,157.4215 L15.8653846,157.4215 Z M44.7884615,75.6475 C46.0384615,76.533 47.0769231,77.7265 47.7884615,79.13175 C49,81.51875 49.1730769,84.29075 48.25,86.79325 L42.9807692,101.327 L60.9615385,80.32525 L45.8846154,76.01325 C45.5,75.93625 45.1346154,75.8015 44.7884615,75.6475 L44.7884615,75.6475 Z M26.6346154,69.911 L41.8461538,74.2615 C42.2307692,74.35775 42.5769231,74.4925 42.9423077,74.6465 C41.7692308,73.81875 40.8076923,72.7215 40.0961538,71.451 C38.8653846,69.218 38.5576923,66.58075 39.2692308,64.11675 L43.3076923,50.10275 L26.6346154,69.911 L26.6346154,69.911 Z"></path>
                    </g>
                </g>
            </g>
        </g>
    </g>
</svg>